<?xml version="1.0" encoding="UTF-8"?>
<svg id="Ebene_1" xmlns="http://www.w3.org/2000/svg" width="385.7" height="371.5" version="1.1" viewBox="0 0 385.7 371.5">
  <!-- Generator: Adobe Illustrator 30.2.1, SVG Export Plug-In . SVG Version: 2.1.1 Build 1)  -->
  <defs>
    <style>
      .st0 {
        fill: #145437;
      }

      .st1 {
        fill: #86bc25;
      }

      .st2 {
        fill: #009540;
      }

      .st3 {
        fill: #145439;
      }

      .st4 {
        fill: #8a5f2b;
      }

      .st5 {
        fill: #ec6d0f;
      }

      .st6 {
        fill: #009ee2;
      }
    </style>
  </defs>
  <path class="st5" d="M114,0c-12.9,0-26.1,2.2-39,6.9C15.9,28.4-14.6,93.8,6.9,153c7.8,21.6,21.6,39.4,38.7,52.2,15.1-11,32.7-16.4,50.3-16.4s34.3,5.2,48.8,15.2c5.1-13.7,12.7-26.8,22.8-38.5,16.4-18.9,37.3-31.6,59.7-38,2.1-17.2.2-35.1-6.1-52.5C204.3,28.8,160.5,0,114,0"/>
  <g>
    <path class="st1" d="M261.4,122.8c-11.6,0-23.1,1.6-34.3,4.8-4.7,38.8-29.2,73.9-66.8,90.6.2.2.4.4.5.6,26.4,30.9,26.9,75.2,3.6,106.5,4.5,5.6,9.6,10.9,15.2,15.8,23.6,20.5,52.6,30.5,81.5,30.5s69.3-14.5,93.9-42.8c45-51.8,39.6-130.4-12.3-175.4-23.6-20.5-52.6-30.5-81.5-30.5"/>
    <path class="st4" d="M227.2,127.5c-22.4,6.4-43.2,19.1-59.7,38-10.2,11.7-17.8,24.8-22.8,38.5,5.7,3.9,11,8.6,15.7,14.1,37.6-16.7,62.1-51.8,66.8-90.6"/>
  </g>
  <g>
    <path class="st6" d="M45.6,205.2c-1.8,1.3-3.5,2.6-5.2,4.1C4.6,239.9.3,293.9,31,329.8c16.9,19.8,40.9,29.9,65,29.9s39.4-6.7,55.4-20.5c5-4.3,9.4-9,13.1-14-23-28.5-31.8-65.2-25.6-100-8.3,1.9-16.7,2.8-25,2.8-24.8,0-48.8-8.2-68.4-22.8"/>
    <path class="st3" d="M95.9,188.8c-17.6,0-35.3,5.4-50.3,16.4,19.6,14.6,43.6,22.8,68.4,22.8s16.7-.9,25-2.8c1.3-7.2,3.2-14.3,5.8-21.2-14.5-10.1-31.6-15.2-48.8-15.2"/>
    <path class="st2" d="M160.4,218.1c-2.4,1.1-4.9,2.1-7.4,3-4.7,1.7-9.3,3.1-14,4.1-6.2,34.8,2.6,71.5,25.6,100,23.3-31.3,22.8-75.5-3.6-106.4-.2-.2-.4-.4-.5-.7"/>
    <path class="st0" d="M144.7,204c-2.6,6.9-4.5,14-5.8,21.2,4.7-1.1,9.4-2.4,14-4.1,2.5-.9,5-1.9,7.4-3-4.7-5.4-10-10.1-15.7-14.1"/>
  </g>
</svg>