<svg fill="none" height="512" viewBox="0 0 48 48" width="512" xmlns="http://www.w3.org/2000/svg"><g fill="rgb(0,0,0)"><path d="m22 20.5c0-.2761-.2239-.5-.5-.5s-.5.2239-.5.5v3c0 .2761.2239.5.5.5s.5-.2239.5-.5z"/><path d="m26.5 20c.2761 0 .5.2239.5.5v3c0 .2761-.2239.5-.5.5s-.5-.2239-.5-.5v-3c0-.2761.2239-.5.5-.5z"/><g clip-rule="evenodd" fill-rule="evenodd"><path d="m24 6.13379c-.1471-.08509-.3179-.13379-.5-.13379h-12.5c-.5523 0-1 .44772-1 1v32c0 .5523.4477 1 1 1h12.5c.1821 0 .3529-.0487.5-.1338.1471.0851.3179.1338.5.1338h12.5c.5523 0 1-.4477 1-1v-32c0-.55228-.4477-1-1-1h-12.5c-.1821 0-.3529.0487-.5.13379zm-.5.86621h-12.5v32h12.5zm1 32h12.5v-32h-12.5z"/><path d="m38 41.8293c1.1652-.4118 2-1.5231 2-2.8293v-32c0-1.65685-1.3431-3-3-3h-26c-1.65685 0-3 1.34315-3 3v32c0 1.3062.83481 2.4175 2 2.8293v1.1707c0 .5523.4477 1 1 1h1c.5523 0 1-.4477 1-1v-1h22v1c0 .5523.4477 1 1 1h1c.5523 0 1-.4477 1-1zm-1-36.8293h-26c-1.10457 0-2 .89543-2 2v32c0 1.1046.89543 2 2 2h26c1.1046 0 2-.8954 2-2v-32c0-1.10457-.8954-2-2-2zm-1 37v1h1v-1zm-25 0h1v1h-1z"/></g></g></svg>